<mxfile host="app.diagrams.net" agent="Mozilla/5.0 (Windows NT 10.0; Win64; x64) AppleWebKit/537.36 (KHTML, like Gecko) Chrome/131.0.0.0 Safari/537.36" version="24.8.4">
  <diagram id="C5RBs43oDa-KdzZeNtuy" name="Page-1">
    <mxGraphModel dx="2345" dy="949" grid="1" gridSize="10" guides="1" tooltips="1" connect="1" arrows="1" fold="1" page="1" pageScale="1" pageWidth="827" pageHeight="1169" math="0" shadow="0">
      <root>
        <mxCell id="WIyWlLk6GJQsqaUBKTNV-0" />
        <mxCell id="WIyWlLk6GJQsqaUBKTNV-1" parent="WIyWlLk6GJQsqaUBKTNV-0" />
        <mxCell id="jv8KGvH0j1TwlN_sup8e-6" value="" style="edgeStyle=orthogonalEdgeStyle;rounded=0;orthogonalLoop=1;jettySize=auto;html=1;" edge="1" parent="WIyWlLk6GJQsqaUBKTNV-1" source="jv8KGvH0j1TwlN_sup8e-0" target="jv8KGvH0j1TwlN_sup8e-2">
          <mxGeometry relative="1" as="geometry" />
        </mxCell>
        <mxCell id="jv8KGvH0j1TwlN_sup8e-9" value="" style="edgeStyle=orthogonalEdgeStyle;rounded=0;orthogonalLoop=1;jettySize=auto;html=1;" edge="1" parent="WIyWlLk6GJQsqaUBKTNV-1" source="jv8KGvH0j1TwlN_sup8e-0" target="jv8KGvH0j1TwlN_sup8e-2">
          <mxGeometry relative="1" as="geometry" />
        </mxCell>
        <mxCell id="jv8KGvH0j1TwlN_sup8e-10" value="" style="edgeStyle=orthogonalEdgeStyle;rounded=0;orthogonalLoop=1;jettySize=auto;html=1;" edge="1" parent="WIyWlLk6GJQsqaUBKTNV-1" source="jv8KGvH0j1TwlN_sup8e-0" target="jv8KGvH0j1TwlN_sup8e-2">
          <mxGeometry relative="1" as="geometry" />
        </mxCell>
        <mxCell id="jv8KGvH0j1TwlN_sup8e-0" value="start" style="rounded=1;whiteSpace=wrap;html=1;" vertex="1" parent="WIyWlLk6GJQsqaUBKTNV-1">
          <mxGeometry x="100" y="60" width="80" height="40" as="geometry" />
        </mxCell>
        <mxCell id="jv8KGvH0j1TwlN_sup8e-7" value="" style="edgeStyle=orthogonalEdgeStyle;rounded=0;orthogonalLoop=1;jettySize=auto;html=1;" edge="1" parent="WIyWlLk6GJQsqaUBKTNV-1" source="jv8KGvH0j1TwlN_sup8e-1" target="jv8KGvH0j1TwlN_sup8e-3">
          <mxGeometry relative="1" as="geometry" />
        </mxCell>
        <mxCell id="jv8KGvH0j1TwlN_sup8e-1" value="readProductQuantiy" style="shape=process;whiteSpace=wrap;html=1;backgroundOutline=1;" vertex="1" parent="WIyWlLk6GJQsqaUBKTNV-1">
          <mxGeometry x="50" y="120" width="180" height="30" as="geometry" />
        </mxCell>
        <mxCell id="jv8KGvH0j1TwlN_sup8e-2" value="readProductNumPricelist" style="shape=process;whiteSpace=wrap;html=1;backgroundOutline=1;" vertex="1" parent="WIyWlLk6GJQsqaUBKTNV-1">
          <mxGeometry x="30" y="170" width="220" height="30" as="geometry" />
        </mxCell>
        <mxCell id="jv8KGvH0j1TwlN_sup8e-8" value="" style="edgeStyle=orthogonalEdgeStyle;rounded=0;orthogonalLoop=1;jettySize=auto;html=1;" edge="1" parent="WIyWlLk6GJQsqaUBKTNV-1" source="jv8KGvH0j1TwlN_sup8e-3" target="jv8KGvH0j1TwlN_sup8e-4">
          <mxGeometry relative="1" as="geometry" />
        </mxCell>
        <mxCell id="jv8KGvH0j1TwlN_sup8e-3" value="readCalc_displayPrice" style="shape=process;whiteSpace=wrap;html=1;backgroundOutline=1;" vertex="1" parent="WIyWlLk6GJQsqaUBKTNV-1">
          <mxGeometry x="30" y="220" width="220" height="30" as="geometry" />
        </mxCell>
        <mxCell id="jv8KGvH0j1TwlN_sup8e-4" value="end" style="rounded=1;whiteSpace=wrap;html=1;" vertex="1" parent="WIyWlLk6GJQsqaUBKTNV-1">
          <mxGeometry x="100" y="270" width="80" height="40" as="geometry" />
        </mxCell>
        <mxCell id="jv8KGvH0j1TwlN_sup8e-22" value="" style="edgeStyle=orthogonalEdgeStyle;rounded=0;orthogonalLoop=1;jettySize=auto;html=1;" edge="1" parent="WIyWlLk6GJQsqaUBKTNV-1" source="jv8KGvH0j1TwlN_sup8e-11" target="jv8KGvH0j1TwlN_sup8e-14">
          <mxGeometry relative="1" as="geometry" />
        </mxCell>
        <mxCell id="jv8KGvH0j1TwlN_sup8e-11" value="readProductQuantity" style="rounded=1;whiteSpace=wrap;html=1;" vertex="1" parent="WIyWlLk6GJQsqaUBKTNV-1">
          <mxGeometry x="345" y="60" width="150" height="40" as="geometry" />
        </mxCell>
        <mxCell id="jv8KGvH0j1TwlN_sup8e-12" value="end" style="rounded=1;whiteSpace=wrap;html=1;" vertex="1" parent="WIyWlLk6GJQsqaUBKTNV-1">
          <mxGeometry x="380" y="430" width="80" height="40" as="geometry" />
        </mxCell>
        <mxCell id="jv8KGvH0j1TwlN_sup8e-15" value="" style="edgeStyle=orthogonalEdgeStyle;rounded=0;orthogonalLoop=1;jettySize=auto;html=1;" edge="1" parent="WIyWlLk6GJQsqaUBKTNV-1" source="jv8KGvH0j1TwlN_sup8e-13" target="jv8KGvH0j1TwlN_sup8e-14">
          <mxGeometry relative="1" as="geometry" />
        </mxCell>
        <mxCell id="jv8KGvH0j1TwlN_sup8e-13" value="Read productNum" style="shape=parallelogram;perimeter=parallelogramPerimeter;whiteSpace=wrap;html=1;fixedSize=1;" vertex="1" parent="WIyWlLk6GJQsqaUBKTNV-1">
          <mxGeometry x="330" y="120" width="180" height="60" as="geometry" />
        </mxCell>
        <mxCell id="jv8KGvH0j1TwlN_sup8e-23" value="" style="edgeStyle=orthogonalEdgeStyle;rounded=0;orthogonalLoop=1;jettySize=auto;html=1;" edge="1" parent="WIyWlLk6GJQsqaUBKTNV-1" source="jv8KGvH0j1TwlN_sup8e-14" target="jv8KGvH0j1TwlN_sup8e-19">
          <mxGeometry relative="1" as="geometry" />
        </mxCell>
        <mxCell id="jv8KGvH0j1TwlN_sup8e-25" style="edgeStyle=orthogonalEdgeStyle;rounded=0;orthogonalLoop=1;jettySize=auto;html=1;entryX=0;entryY=0.5;entryDx=0;entryDy=0;" edge="1" parent="WIyWlLk6GJQsqaUBKTNV-1" source="jv8KGvH0j1TwlN_sup8e-14" target="jv8KGvH0j1TwlN_sup8e-12">
          <mxGeometry relative="1" as="geometry">
            <Array as="points">
              <mxPoint x="320" y="250" />
              <mxPoint x="320" y="450" />
            </Array>
          </mxGeometry>
        </mxCell>
        <mxCell id="jv8KGvH0j1TwlN_sup8e-14" value="productNum==-999" style="rhombus;whiteSpace=wrap;html=1;" vertex="1" parent="WIyWlLk6GJQsqaUBKTNV-1">
          <mxGeometry x="340" y="210" width="160" height="80" as="geometry" />
        </mxCell>
        <mxCell id="jv8KGvH0j1TwlN_sup8e-24" value="" style="edgeStyle=orthogonalEdgeStyle;rounded=0;orthogonalLoop=1;jettySize=auto;html=1;" edge="1" parent="WIyWlLk6GJQsqaUBKTNV-1" source="jv8KGvH0j1TwlN_sup8e-19" target="jv8KGvH0j1TwlN_sup8e-12">
          <mxGeometry relative="1" as="geometry" />
        </mxCell>
        <mxCell id="jv8KGvH0j1TwlN_sup8e-19" value="Read qtySold" style="shape=parallelogram;perimeter=parallelogramPerimeter;whiteSpace=wrap;html=1;fixedSize=1;" vertex="1" parent="WIyWlLk6GJQsqaUBKTNV-1">
          <mxGeometry x="360" y="330" width="120" height="60" as="geometry" />
        </mxCell>
        <mxCell id="jv8KGvH0j1TwlN_sup8e-20" value="TRUE" style="text;html=1;align=center;verticalAlign=middle;whiteSpace=wrap;rounded=0;" vertex="1" parent="WIyWlLk6GJQsqaUBKTNV-1">
          <mxGeometry x="300" y="220" width="60" height="30" as="geometry" />
        </mxCell>
        <mxCell id="jv8KGvH0j1TwlN_sup8e-21" value="FALSE" style="text;html=1;align=center;verticalAlign=middle;whiteSpace=wrap;rounded=0;" vertex="1" parent="WIyWlLk6GJQsqaUBKTNV-1">
          <mxGeometry x="430" y="280" width="60" height="30" as="geometry" />
        </mxCell>
        <mxCell id="jv8KGvH0j1TwlN_sup8e-106" value="" style="edgeStyle=orthogonalEdgeStyle;rounded=0;orthogonalLoop=1;jettySize=auto;html=1;" edge="1" parent="WIyWlLk6GJQsqaUBKTNV-1" source="jv8KGvH0j1TwlN_sup8e-28" target="jv8KGvH0j1TwlN_sup8e-105">
          <mxGeometry relative="1" as="geometry" />
        </mxCell>
        <mxCell id="jv8KGvH0j1TwlN_sup8e-28" value="readProductNumPricelist" style="rounded=1;whiteSpace=wrap;html=1;" vertex="1" parent="WIyWlLk6GJQsqaUBKTNV-1">
          <mxGeometry x="35" y="500" width="150" height="40" as="geometry" />
        </mxCell>
        <mxCell id="jv8KGvH0j1TwlN_sup8e-29" value="end" style="rounded=1;whiteSpace=wrap;html=1;" vertex="1" parent="WIyWlLk6GJQsqaUBKTNV-1">
          <mxGeometry x="70" y="1010" width="80" height="40" as="geometry" />
        </mxCell>
        <mxCell id="jv8KGvH0j1TwlN_sup8e-30" value="" style="edgeStyle=orthogonalEdgeStyle;rounded=0;orthogonalLoop=1;jettySize=auto;html=1;" edge="1" parent="WIyWlLk6GJQsqaUBKTNV-1" target="jv8KGvH0j1TwlN_sup8e-34">
          <mxGeometry relative="1" as="geometry">
            <mxPoint x="110" y="680" as="sourcePoint" />
          </mxGeometry>
        </mxCell>
        <mxCell id="jv8KGvH0j1TwlN_sup8e-39" value="" style="edgeStyle=orthogonalEdgeStyle;rounded=0;orthogonalLoop=1;jettySize=auto;html=1;" edge="1" parent="WIyWlLk6GJQsqaUBKTNV-1" source="jv8KGvH0j1TwlN_sup8e-34" target="jv8KGvH0j1TwlN_sup8e-38">
          <mxGeometry relative="1" as="geometry" />
        </mxCell>
        <mxCell id="jv8KGvH0j1TwlN_sup8e-41" value="" style="edgeStyle=orthogonalEdgeStyle;rounded=0;orthogonalLoop=1;jettySize=auto;html=1;" edge="1" parent="WIyWlLk6GJQsqaUBKTNV-1" source="jv8KGvH0j1TwlN_sup8e-34" target="jv8KGvH0j1TwlN_sup8e-40">
          <mxGeometry relative="1" as="geometry" />
        </mxCell>
        <mxCell id="jv8KGvH0j1TwlN_sup8e-34" value="productNum==1" style="rhombus;whiteSpace=wrap;html=1;" vertex="1" parent="WIyWlLk6GJQsqaUBKTNV-1">
          <mxGeometry x="30" y="650" width="160" height="80" as="geometry" />
        </mxCell>
        <mxCell id="jv8KGvH0j1TwlN_sup8e-35" value="" style="edgeStyle=orthogonalEdgeStyle;rounded=0;orthogonalLoop=1;jettySize=auto;html=1;" edge="1" parent="WIyWlLk6GJQsqaUBKTNV-1" target="jv8KGvH0j1TwlN_sup8e-29">
          <mxGeometry relative="1" as="geometry">
            <mxPoint x="110" y="829.9999999999998" as="sourcePoint" />
          </mxGeometry>
        </mxCell>
        <mxCell id="jv8KGvH0j1TwlN_sup8e-38" value="price=2.98" style="whiteSpace=wrap;html=1;" vertex="1" parent="WIyWlLk6GJQsqaUBKTNV-1">
          <mxGeometry x="50" y="770" width="120" height="60" as="geometry" />
        </mxCell>
        <mxCell id="jv8KGvH0j1TwlN_sup8e-43" value="" style="edgeStyle=orthogonalEdgeStyle;rounded=0;orthogonalLoop=1;jettySize=auto;html=1;" edge="1" parent="WIyWlLk6GJQsqaUBKTNV-1" source="jv8KGvH0j1TwlN_sup8e-40" target="jv8KGvH0j1TwlN_sup8e-42">
          <mxGeometry relative="1" as="geometry" />
        </mxCell>
        <mxCell id="jv8KGvH0j1TwlN_sup8e-40" value="productNum==2" style="rhombus;whiteSpace=wrap;html=1;" vertex="1" parent="WIyWlLk6GJQsqaUBKTNV-1">
          <mxGeometry x="270" y="650" width="160" height="80" as="geometry" />
        </mxCell>
        <mxCell id="jv8KGvH0j1TwlN_sup8e-45" value="" style="edgeStyle=orthogonalEdgeStyle;rounded=0;orthogonalLoop=1;jettySize=auto;html=1;" edge="1" parent="WIyWlLk6GJQsqaUBKTNV-1" source="jv8KGvH0j1TwlN_sup8e-42" target="jv8KGvH0j1TwlN_sup8e-44">
          <mxGeometry relative="1" as="geometry" />
        </mxCell>
        <mxCell id="jv8KGvH0j1TwlN_sup8e-42" value="productNum==3" style="rhombus;whiteSpace=wrap;html=1;" vertex="1" parent="WIyWlLk6GJQsqaUBKTNV-1">
          <mxGeometry x="510" y="650" width="160" height="80" as="geometry" />
        </mxCell>
        <mxCell id="jv8KGvH0j1TwlN_sup8e-47" value="" style="edgeStyle=orthogonalEdgeStyle;rounded=0;orthogonalLoop=1;jettySize=auto;html=1;" edge="1" parent="WIyWlLk6GJQsqaUBKTNV-1" source="jv8KGvH0j1TwlN_sup8e-44" target="jv8KGvH0j1TwlN_sup8e-46">
          <mxGeometry relative="1" as="geometry" />
        </mxCell>
        <mxCell id="jv8KGvH0j1TwlN_sup8e-44" value="productNum==4" style="rhombus;whiteSpace=wrap;html=1;" vertex="1" parent="WIyWlLk6GJQsqaUBKTNV-1">
          <mxGeometry x="750" y="650" width="160" height="80" as="geometry" />
        </mxCell>
        <mxCell id="jv8KGvH0j1TwlN_sup8e-49" value="" style="edgeStyle=orthogonalEdgeStyle;rounded=0;orthogonalLoop=1;jettySize=auto;html=1;" edge="1" parent="WIyWlLk6GJQsqaUBKTNV-1" source="jv8KGvH0j1TwlN_sup8e-46" target="jv8KGvH0j1TwlN_sup8e-48">
          <mxGeometry relative="1" as="geometry" />
        </mxCell>
        <mxCell id="jv8KGvH0j1TwlN_sup8e-46" value="productNum==5" style="rhombus;whiteSpace=wrap;html=1;" vertex="1" parent="WIyWlLk6GJQsqaUBKTNV-1">
          <mxGeometry x="990" y="650" width="160" height="80" as="geometry" />
        </mxCell>
        <mxCell id="jv8KGvH0j1TwlN_sup8e-66" value="" style="edgeStyle=orthogonalEdgeStyle;rounded=0;orthogonalLoop=1;jettySize=auto;html=1;" edge="1" parent="WIyWlLk6GJQsqaUBKTNV-1" source="jv8KGvH0j1TwlN_sup8e-48" target="jv8KGvH0j1TwlN_sup8e-65">
          <mxGeometry relative="1" as="geometry" />
        </mxCell>
        <mxCell id="jv8KGvH0j1TwlN_sup8e-48" value="productNum==-999" style="rhombus;whiteSpace=wrap;html=1;" vertex="1" parent="WIyWlLk6GJQsqaUBKTNV-1">
          <mxGeometry x="1230" y="650" width="160" height="80" as="geometry" />
        </mxCell>
        <mxCell id="jv8KGvH0j1TwlN_sup8e-50" value="" style="edgeStyle=orthogonalEdgeStyle;rounded=0;orthogonalLoop=1;jettySize=auto;html=1;" edge="1" parent="WIyWlLk6GJQsqaUBKTNV-1" target="jv8KGvH0j1TwlN_sup8e-52">
          <mxGeometry relative="1" as="geometry">
            <mxPoint x="350" y="730" as="sourcePoint" />
          </mxGeometry>
        </mxCell>
        <mxCell id="jv8KGvH0j1TwlN_sup8e-70" style="edgeStyle=orthogonalEdgeStyle;rounded=0;orthogonalLoop=1;jettySize=auto;html=1;" edge="1" parent="WIyWlLk6GJQsqaUBKTNV-1" source="jv8KGvH0j1TwlN_sup8e-52">
          <mxGeometry relative="1" as="geometry">
            <mxPoint x="110" y="899.9999999999998" as="targetPoint" />
            <Array as="points">
              <mxPoint x="350" y="900" />
            </Array>
          </mxGeometry>
        </mxCell>
        <mxCell id="jv8KGvH0j1TwlN_sup8e-52" value="price=4.50" style="whiteSpace=wrap;html=1;" vertex="1" parent="WIyWlLk6GJQsqaUBKTNV-1">
          <mxGeometry x="290" y="770" width="120" height="60" as="geometry" />
        </mxCell>
        <mxCell id="jv8KGvH0j1TwlN_sup8e-53" value="" style="edgeStyle=orthogonalEdgeStyle;rounded=0;orthogonalLoop=1;jettySize=auto;html=1;" edge="1" parent="WIyWlLk6GJQsqaUBKTNV-1" target="jv8KGvH0j1TwlN_sup8e-55">
          <mxGeometry relative="1" as="geometry">
            <mxPoint x="590" y="730" as="sourcePoint" />
          </mxGeometry>
        </mxCell>
        <mxCell id="jv8KGvH0j1TwlN_sup8e-71" style="edgeStyle=orthogonalEdgeStyle;rounded=0;orthogonalLoop=1;jettySize=auto;html=1;" edge="1" parent="WIyWlLk6GJQsqaUBKTNV-1" source="jv8KGvH0j1TwlN_sup8e-55">
          <mxGeometry relative="1" as="geometry">
            <mxPoint x="110" y="930" as="targetPoint" />
            <Array as="points">
              <mxPoint x="590" y="930" />
              <mxPoint x="110" y="930" />
            </Array>
          </mxGeometry>
        </mxCell>
        <mxCell id="jv8KGvH0j1TwlN_sup8e-55" value="price=9.98" style="whiteSpace=wrap;html=1;" vertex="1" parent="WIyWlLk6GJQsqaUBKTNV-1">
          <mxGeometry x="530" y="770" width="120" height="60" as="geometry" />
        </mxCell>
        <mxCell id="jv8KGvH0j1TwlN_sup8e-56" value="" style="edgeStyle=orthogonalEdgeStyle;rounded=0;orthogonalLoop=1;jettySize=auto;html=1;" edge="1" parent="WIyWlLk6GJQsqaUBKTNV-1" target="jv8KGvH0j1TwlN_sup8e-58">
          <mxGeometry relative="1" as="geometry">
            <mxPoint x="820" y="730" as="sourcePoint" />
          </mxGeometry>
        </mxCell>
        <mxCell id="jv8KGvH0j1TwlN_sup8e-72" style="edgeStyle=orthogonalEdgeStyle;rounded=0;orthogonalLoop=1;jettySize=auto;html=1;" edge="1" parent="WIyWlLk6GJQsqaUBKTNV-1" source="jv8KGvH0j1TwlN_sup8e-58">
          <mxGeometry relative="1" as="geometry">
            <mxPoint x="110" y="950" as="targetPoint" />
            <Array as="points">
              <mxPoint x="820" y="950" />
              <mxPoint x="110" y="950" />
            </Array>
          </mxGeometry>
        </mxCell>
        <mxCell id="jv8KGvH0j1TwlN_sup8e-58" value="price=4.49" style="whiteSpace=wrap;html=1;" vertex="1" parent="WIyWlLk6GJQsqaUBKTNV-1">
          <mxGeometry x="760" y="770" width="120" height="60" as="geometry" />
        </mxCell>
        <mxCell id="jv8KGvH0j1TwlN_sup8e-59" value="" style="edgeStyle=orthogonalEdgeStyle;rounded=0;orthogonalLoop=1;jettySize=auto;html=1;" edge="1" parent="WIyWlLk6GJQsqaUBKTNV-1" target="jv8KGvH0j1TwlN_sup8e-61">
          <mxGeometry relative="1" as="geometry">
            <mxPoint x="1070" y="730" as="sourcePoint" />
          </mxGeometry>
        </mxCell>
        <mxCell id="jv8KGvH0j1TwlN_sup8e-73" style="edgeStyle=orthogonalEdgeStyle;rounded=0;orthogonalLoop=1;jettySize=auto;html=1;" edge="1" parent="WIyWlLk6GJQsqaUBKTNV-1" source="jv8KGvH0j1TwlN_sup8e-61">
          <mxGeometry relative="1" as="geometry">
            <mxPoint x="110" y="970" as="targetPoint" />
            <Array as="points">
              <mxPoint x="1070" y="970" />
              <mxPoint x="110" y="970" />
            </Array>
          </mxGeometry>
        </mxCell>
        <mxCell id="jv8KGvH0j1TwlN_sup8e-61" value="price=6.87" style="whiteSpace=wrap;html=1;" vertex="1" parent="WIyWlLk6GJQsqaUBKTNV-1">
          <mxGeometry x="1010" y="770" width="120" height="60" as="geometry" />
        </mxCell>
        <mxCell id="jv8KGvH0j1TwlN_sup8e-63" value="" style="edgeStyle=orthogonalEdgeStyle;rounded=0;orthogonalLoop=1;jettySize=auto;html=1;" edge="1" parent="WIyWlLk6GJQsqaUBKTNV-1">
          <mxGeometry relative="1" as="geometry">
            <mxPoint x="1310" y="819.9999999999998" as="sourcePoint" />
            <mxPoint x="1310" y="860" as="targetPoint" />
          </mxGeometry>
        </mxCell>
        <mxCell id="jv8KGvH0j1TwlN_sup8e-65" value="print error message" style="shape=parallelogram;perimeter=parallelogramPerimeter;whiteSpace=wrap;html=1;fixedSize=1;" vertex="1" parent="WIyWlLk6GJQsqaUBKTNV-1">
          <mxGeometry x="1230" y="770" width="160" height="60" as="geometry" />
        </mxCell>
        <mxCell id="jv8KGvH0j1TwlN_sup8e-74" style="edgeStyle=orthogonalEdgeStyle;rounded=0;orthogonalLoop=1;jettySize=auto;html=1;" edge="1" parent="WIyWlLk6GJQsqaUBKTNV-1" source="jv8KGvH0j1TwlN_sup8e-67">
          <mxGeometry relative="1" as="geometry">
            <mxPoint x="110" y="990" as="targetPoint" />
            <Array as="points">
              <mxPoint x="1310" y="990" />
              <mxPoint x="110" y="990" />
            </Array>
          </mxGeometry>
        </mxCell>
        <mxCell id="jv8KGvH0j1TwlN_sup8e-67" value="readProductQuantity" style="shape=process;whiteSpace=wrap;html=1;backgroundOutline=1;" vertex="1" parent="WIyWlLk6GJQsqaUBKTNV-1">
          <mxGeometry x="1215" y="860" width="190" height="60" as="geometry" />
        </mxCell>
        <mxCell id="jv8KGvH0j1TwlN_sup8e-93" value="" style="edgeStyle=orthogonalEdgeStyle;rounded=0;orthogonalLoop=1;jettySize=auto;html=1;" edge="1" parent="WIyWlLk6GJQsqaUBKTNV-1" source="jv8KGvH0j1TwlN_sup8e-76" target="jv8KGvH0j1TwlN_sup8e-92">
          <mxGeometry relative="1" as="geometry" />
        </mxCell>
        <mxCell id="jv8KGvH0j1TwlN_sup8e-76" value="readCalc_displayPrice" style="rounded=1;whiteSpace=wrap;html=1;" vertex="1" parent="WIyWlLk6GJQsqaUBKTNV-1">
          <mxGeometry x="595" y="60" width="150" height="40" as="geometry" />
        </mxCell>
        <mxCell id="jv8KGvH0j1TwlN_sup8e-95" value="" style="edgeStyle=orthogonalEdgeStyle;rounded=0;orthogonalLoop=1;jettySize=auto;html=1;" edge="1" parent="WIyWlLk6GJQsqaUBKTNV-1" source="jv8KGvH0j1TwlN_sup8e-92" target="jv8KGvH0j1TwlN_sup8e-94">
          <mxGeometry relative="1" as="geometry" />
        </mxCell>
        <mxCell id="jv8KGvH0j1TwlN_sup8e-92" value="totalPrice=price*qtySold" style="rounded=0;whiteSpace=wrap;html=1;" vertex="1" parent="WIyWlLk6GJQsqaUBKTNV-1">
          <mxGeometry x="580" y="130" width="180" height="60" as="geometry" />
        </mxCell>
        <mxCell id="jv8KGvH0j1TwlN_sup8e-97" value="" style="edgeStyle=orthogonalEdgeStyle;rounded=0;orthogonalLoop=1;jettySize=auto;html=1;" edge="1" parent="WIyWlLk6GJQsqaUBKTNV-1" source="jv8KGvH0j1TwlN_sup8e-94" target="jv8KGvH0j1TwlN_sup8e-96">
          <mxGeometry relative="1" as="geometry" />
        </mxCell>
        <mxCell id="jv8KGvH0j1TwlN_sup8e-94" value="totalRetailValue += totalPrice" style="rounded=0;whiteSpace=wrap;html=1;" vertex="1" parent="WIyWlLk6GJQsqaUBKTNV-1">
          <mxGeometry x="580" y="230" width="180" height="60" as="geometry" />
        </mxCell>
        <mxCell id="jv8KGvH0j1TwlN_sup8e-101" value="" style="edgeStyle=orthogonalEdgeStyle;rounded=0;orthogonalLoop=1;jettySize=auto;html=1;" edge="1" parent="WIyWlLk6GJQsqaUBKTNV-1" source="jv8KGvH0j1TwlN_sup8e-96" target="jv8KGvH0j1TwlN_sup8e-100">
          <mxGeometry relative="1" as="geometry" />
        </mxCell>
        <mxCell id="jv8KGvH0j1TwlN_sup8e-96" value="print totalPrice,totalRetailValue" style="shape=parallelogram;perimeter=parallelogramPerimeter;whiteSpace=wrap;html=1;fixedSize=1;rounded=0;" vertex="1" parent="WIyWlLk6GJQsqaUBKTNV-1">
          <mxGeometry x="570" y="340" width="200" height="60" as="geometry" />
        </mxCell>
        <mxCell id="jv8KGvH0j1TwlN_sup8e-100" value="end" style="rounded=1;whiteSpace=wrap;html=1;" vertex="1" parent="WIyWlLk6GJQsqaUBKTNV-1">
          <mxGeometry x="630" y="440" width="80" height="40" as="geometry" />
        </mxCell>
        <mxCell id="jv8KGvH0j1TwlN_sup8e-107" value="" style="edgeStyle=orthogonalEdgeStyle;rounded=0;orthogonalLoop=1;jettySize=auto;html=1;" edge="1" parent="WIyWlLk6GJQsqaUBKTNV-1" source="jv8KGvH0j1TwlN_sup8e-105" target="jv8KGvH0j1TwlN_sup8e-34">
          <mxGeometry relative="1" as="geometry" />
        </mxCell>
        <mxCell id="jv8KGvH0j1TwlN_sup8e-105" value="Read productNum" style="shape=parallelogram;perimeter=parallelogramPerimeter;whiteSpace=wrap;html=1;fixedSize=1;" vertex="1" parent="WIyWlLk6GJQsqaUBKTNV-1">
          <mxGeometry x="40" y="570" width="140" height="60" as="geometry" />
        </mxCell>
      </root>
    </mxGraphModel>
  </diagram>
</mxfile>
